<?xml version="1.0" encoding="UTF-8"?>
<svg xmlns="http://www.w3.org/2000/svg" xmlns:xlink="http://www.w3.org/1999/xlink" width="2500" height="2000" viewBox="0 0 2500 2000">
<defs>
<clipPath id="clip-0">
<path clip-rule="nonzero" d="M 1534.078125 749.28125 L 1600.421875 749.28125 L 1600.421875 815.621094 L 1534.078125 815.621094 Z M 1534.078125 749.28125 "/>
</clipPath>
<linearGradient id="linear-pattern-0" gradientUnits="userSpaceOnUse" x1="-0.045605" y1="0" x2="0.0957083" y2="0" gradientTransform="matrix(-314.977, 556.834, -556.834, -314.977, 1575.14, 768.5)">
<stop offset="0" stop-color="rgb(30.821228%, 68.772888%, 89.56604%)" stop-opacity="1"/>
<stop offset="0.25" stop-color="rgb(30.821228%, 68.772888%, 89.56604%)" stop-opacity="1"/>
<stop offset="0.3125" stop-color="rgb(30.821228%, 68.772888%, 89.56604%)" stop-opacity="1"/>
<stop offset="0.34375" stop-color="rgb(30.79834%, 68.693542%, 89.49585%)" stop-opacity="1"/>
<stop offset="0.375" stop-color="rgb(30.738831%, 68.493652%, 89.324951%)" stop-opacity="1"/>
<stop offset="0.40625" stop-color="rgb(30.66864%, 68.257141%, 89.118958%)" stop-opacity="1"/>
<stop offset="0.4375" stop-color="rgb(30.59845%, 68.022156%, 88.917542%)" stop-opacity="1"/>
<stop offset="0.46875" stop-color="rgb(30.522156%, 67.823792%, 88.775635%)" stop-opacity="1"/>
<stop offset="0.5" stop-color="rgb(30.439758%, 67.658997%, 88.687134%)" stop-opacity="1"/>
<stop offset="0.53125" stop-color="rgb(30.358887%, 67.494202%, 88.598633%)" stop-opacity="1"/>
<stop offset="0.5625" stop-color="rgb(30.278015%, 67.329407%, 88.491821%)" stop-opacity="1"/>
<stop offset="0.59375" stop-color="rgb(30.197144%, 67.163086%, 88.349915%)" stop-opacity="1"/>
<stop offset="0.625" stop-color="rgb(30.116272%, 66.996765%, 88.188171%)" stop-opacity="1"/>
<stop offset="0.65625" stop-color="rgb(30.0354%, 66.830444%, 88.026428%)" stop-opacity="1"/>
<stop offset="0.6875" stop-color="rgb(29.954529%, 66.665649%, 87.896729%)" stop-opacity="1"/>
<stop offset="0.71875" stop-color="rgb(29.875183%, 66.50238%, 87.805176%)" stop-opacity="1"/>
<stop offset="0.75" stop-color="rgb(29.792786%, 66.339111%, 87.716675%)" stop-opacity="1"/>
<stop offset="0.78125" stop-color="rgb(29.714966%, 66.165161%, 87.612915%)" stop-opacity="1"/>
<stop offset="0.8125" stop-color="rgb(29.641724%, 65.957642%, 87.451172%)" stop-opacity="1"/>
<stop offset="0.84375" stop-color="rgb(29.574585%, 65.724182%, 87.24823%)" stop-opacity="1"/>
<stop offset="0.875" stop-color="rgb(29.507446%, 65.492249%, 87.04834%)" stop-opacity="1"/>
<stop offset="0.90625" stop-color="rgb(29.43573%, 65.284729%, 86.886597%)" stop-opacity="1"/>
<stop offset="0.9375" stop-color="rgb(29.35791%, 65.113831%, 86.781311%)" stop-opacity="1"/>
<stop offset="0.96875" stop-color="rgb(29.278564%, 64.952087%, 86.694336%)" stop-opacity="1"/>
<stop offset="1" stop-color="rgb(29.199219%, 64.787292%, 86.602783%)" stop-opacity="1"/>
</linearGradient>
<clipPath id="clip-1">
<path clip-rule="nonzero" d="M 1622.398438 675.351562 L 1705.128906 675.351562 L 1705.128906 758.078125 L 1622.398438 758.078125 Z M 1622.398438 675.351562 "/>
</clipPath>
<clipPath id="clip-2">
<path clip-rule="nonzero" d="M 1663.761719 816.488281 L 1744.921875 816.488281 L 1744.921875 897.648438 L 1663.761719 897.648438 Z M 1663.761719 816.488281 "/>
</clipPath>
<linearGradient id="linear-pattern-1" gradientUnits="userSpaceOnUse" x1="-0.0653717" y1="0" x2="0.10751" y2="0" gradientTransform="matrix(-314.977, 556.834, -556.834, -314.977, 1710.98, 845.34)">
<stop offset="0" stop-color="rgb(30.821228%, 68.772888%, 89.56604%)" stop-opacity="1"/>
<stop offset="0.25" stop-color="rgb(30.821228%, 68.772888%, 89.56604%)" stop-opacity="1"/>
<stop offset="0.375" stop-color="rgb(30.821228%, 68.772888%, 89.56604%)" stop-opacity="1"/>
<stop offset="0.40625" stop-color="rgb(30.783081%, 68.641663%, 89.451599%)" stop-opacity="1"/>
<stop offset="0.421875" stop-color="rgb(30.722046%, 68.438721%, 89.276123%)" stop-opacity="1"/>
<stop offset="0.4375" stop-color="rgb(30.679321%, 68.293762%, 89.151001%)" stop-opacity="1"/>
<stop offset="0.453125" stop-color="rgb(30.636597%, 68.148804%, 89.025879%)" stop-opacity="1"/>
<stop offset="0.46875" stop-color="rgb(30.593872%, 68.002319%, 88.899231%)" stop-opacity="1"/>
<stop offset="0.5" stop-color="rgb(30.523682%, 67.826843%, 88.780212%)" stop-opacity="1"/>
<stop offset="0.53125" stop-color="rgb(30.422974%, 67.623901%, 88.668823%)" stop-opacity="1"/>
<stop offset="0.5625" stop-color="rgb(30.323792%, 67.422485%, 88.55896%)" stop-opacity="1"/>
<stop offset="0.59375" stop-color="rgb(30.224609%, 67.219543%, 88.404846%)" stop-opacity="1"/>
<stop offset="0.625" stop-color="rgb(30.125427%, 67.016602%, 88.206482%)" stop-opacity="1"/>
<stop offset="0.65625" stop-color="rgb(30.026245%, 66.81366%, 88.012695%)" stop-opacity="1"/>
<stop offset="0.6875" stop-color="rgb(29.928589%, 66.612244%, 87.864685%)" stop-opacity="1"/>
<stop offset="0.71875" stop-color="rgb(29.829407%, 66.412354%, 87.756348%)" stop-opacity="1"/>
<stop offset="0.75" stop-color="rgb(29.73175%, 66.20636%, 87.638855%)" stop-opacity="1"/>
<stop offset="0.765625" stop-color="rgb(29.663086%, 66.029358%, 87.513733%)" stop-opacity="1"/>
<stop offset="0.78125" stop-color="rgb(29.621887%, 65.887451%, 87.390137%)" stop-opacity="1"/>
<stop offset="0.796875" stop-color="rgb(29.580688%, 65.745544%, 87.266541%)" stop-opacity="1"/>
<stop offset="0.8125" stop-color="rgb(29.53949%, 65.602112%, 87.14447%)" stop-opacity="1"/>
<stop offset="0.84375" stop-color="rgb(29.475403%, 65.397644%, 86.973572%)" stop-opacity="1"/>
<stop offset="0.875" stop-color="rgb(29.38385%, 65.167236%, 86.811829%)" stop-opacity="1"/>
<stop offset="0.90625" stop-color="rgb(29.286194%, 64.970398%, 86.705017%)" stop-opacity="1"/>
<stop offset="0.9375" stop-color="rgb(29.191589%, 64.761353%, 86.579895%)" stop-opacity="1"/>
<stop offset="0.953125" stop-color="rgb(29.124451%, 64.581299%, 86.445618%)" stop-opacity="1"/>
<stop offset="0.96875" stop-color="rgb(29.084778%, 64.440918%, 86.323547%)" stop-opacity="1"/>
<stop offset="0.984375" stop-color="rgb(29.043579%, 64.299011%, 86.201477%)" stop-opacity="1"/>
<stop offset="1" stop-color="rgb(29.00238%, 64.15863%, 86.079407%)" stop-opacity="1"/>
</linearGradient>
<clipPath id="clip-3">
<path clip-rule="nonzero" d="M 1787.621094 873.53125 L 1870.140625 873.53125 L 1870.140625 956.058594 L 1787.621094 956.058594 Z M 1787.621094 873.53125 "/>
</clipPath>
<linearGradient id="linear-pattern-2" gradientUnits="userSpaceOnUse" x1="-0.0841378" y1="0" x2="0.0916547" y2="0" gradientTransform="matrix(-314.977, 556.834, -556.834, -314.977, 1830.06, 912.7)">
<stop offset="0" stop-color="rgb(30.821228%, 68.772888%, 89.56604%)" stop-opacity="1"/>
<stop offset="0.5" stop-color="rgb(30.792236%, 68.67218%, 89.477539%)" stop-opacity="1"/>
<stop offset="0.515625" stop-color="rgb(30.740356%, 68.496704%, 89.328003%)" stop-opacity="1"/>
<stop offset="0.53125" stop-color="rgb(30.69458%, 68.348694%, 89.198303%)" stop-opacity="1"/>
<stop offset="0.546875" stop-color="rgb(30.651855%, 68.202209%, 89.071655%)" stop-opacity="1"/>
<stop offset="0.5625" stop-color="rgb(30.609131%, 68.054199%, 88.943481%)" stop-opacity="1"/>
<stop offset="0.59375" stop-color="rgb(30.53894%, 67.868042%, 88.81073%)" stop-opacity="1"/>
<stop offset="0.625" stop-color="rgb(30.438232%, 67.652893%, 88.684082%)" stop-opacity="1"/>
<stop offset="0.65625" stop-color="rgb(30.335999%, 67.448425%, 88.574219%)" stop-opacity="1"/>
<stop offset="0.6875" stop-color="rgb(30.235291%, 67.242432%, 88.421631%)" stop-opacity="1"/>
<stop offset="0.71875" stop-color="rgb(30.134583%, 67.034912%, 88.226318%)" stop-opacity="1"/>
<stop offset="0.75" stop-color="rgb(30.033875%, 66.828918%, 88.024902%)" stop-opacity="1"/>
<stop offset="0.78125" stop-color="rgb(29.934692%, 66.624451%, 87.870789%)" stop-opacity="1"/>
<stop offset="0.8125" stop-color="rgb(29.833984%, 66.421509%, 87.760925%)" stop-opacity="1"/>
<stop offset="0.84375" stop-color="rgb(29.734802%, 66.213989%, 87.643433%)" stop-opacity="1"/>
<stop offset="0.859375" stop-color="rgb(29.664612%, 66.033936%, 87.516785%)" stop-opacity="1"/>
<stop offset="0.875" stop-color="rgb(29.621887%, 65.888977%, 87.391663%)" stop-opacity="1"/>
<stop offset="0.890625" stop-color="rgb(29.580688%, 65.744019%, 87.265015%)" stop-opacity="1"/>
<stop offset="0.90625" stop-color="rgb(29.537964%, 65.59906%, 87.141418%)" stop-opacity="1"/>
<stop offset="0.9375" stop-color="rgb(29.473877%, 65.393066%, 86.968994%)" stop-opacity="1"/>
<stop offset="0.96875" stop-color="rgb(29.380798%, 65.158081%, 86.805725%)" stop-opacity="1"/>
<stop offset="1" stop-color="rgb(29.281616%, 64.958191%, 86.697388%)" stop-opacity="1"/>
</linearGradient>
<clipPath id="clip-4">
<path clip-rule="nonzero" d="M 1729.71875 699.699219 L 1828.878906 699.699219 L 1828.878906 798.859375 L 1729.71875 798.859375 Z M 1729.71875 699.699219 "/>
</clipPath>
<clipPath id="clip-5">
<path clip-rule="nonzero" d="M 1806.96875 586.550781 L 1897.871094 586.550781 L 1897.871094 677.460938 L 1806.96875 677.460938 Z M 1806.96875 586.550781 "/>
</clipPath>
<clipPath id="clip-6">
<path clip-rule="nonzero" d="M 1666.351562 554.449219 L 1743.898438 554.449219 L 1743.898438 632 L 1666.351562 632 Z M 1666.351562 554.449219 "/>
</clipPath>
<clipPath id="clip-7">
<path clip-rule="nonzero" d="M 809 525 L 1604 525 L 1604 1142 L 809 1142 Z M 809 525 "/>
</clipPath>
<clipPath id="clip-8">
<path clip-rule="nonzero" d="M 1499.328125 741.308594 L 1434.679688 741.308594 L 1434.679688 676.671875 L 1499.328125 676.671875 Z M 1557.921875 862.359375 L 1603.089844 862.359375 L 1603.089844 826.871094 L 1522.171875 826.871094 L 1522.171875 738.488281 L 1603.089844 738.488281 L 1603.089844 697.511719 L 1557.921875 697.511719 L 1557.921875 642.730469 L 1603.089844 642.730469 L 1603.089844 585.660156 C 1603.089844 552.429688 1576.050781 525.410156 1542.828125 525.410156 L 869.261719 525.410156 C 836.050781 525.410156 809.007812 552.429688 809.007812 585.660156 L 809.007812 979.398438 C 809.007812 1012.621094 836.050781 1039.648438 869.261719 1039.648438 L 1141.699219 1039.648438 L 1141.699219 1098.378906 L 1072.410156 1141.859375 L 1337.710938 1141.859375 L 1270.390625 1098.378906 L 1270.390625 1039.648438 L 1542.828125 1039.648438 C 1576.050781 1039.648438 1603.089844 1012.621094 1603.089844 979.398438 L 1603.089844 933.339844 L 1557.921875 933.339844 Z M 1557.921875 862.359375 "/>
</clipPath>
<clipPath id="clip-9">
<path clip-rule="nonzero" d="M 1499.328125 741.308594 L 1434.679688 741.308594 L 1434.679688 676.671875 L 1499.328125 676.671875 Z M 1557.921875 862.359375 L 1603.089844 862.359375 L 1603.089844 826.871094 L 1522.171875 826.871094 L 1522.171875 738.488281 L 1603.089844 738.488281 L 1603.089844 697.511719 L 1557.921875 697.511719 L 1557.921875 642.730469 L 1603.089844 642.730469 L 1603.089844 585.660156 C 1603.089844 552.429688 1576.050781 525.410156 1542.828125 525.410156 L 869.261719 525.410156 C 836.050781 525.410156 809.007812 552.429688 809.007812 585.660156 L 809.007812 979.398438 C 809.007812 1012.621094 836.050781 1039.648438 869.261719 1039.648438 L 1141.699219 1039.648438 L 1141.699219 1098.378906 L 1072.410156 1141.859375 L 1337.710938 1141.859375 L 1270.390625 1098.378906 L 1270.390625 1039.648438 L 1542.828125 1039.648438 C 1576.050781 1039.648438 1603.089844 1012.621094 1603.089844 979.398438 L 1603.089844 933.339844 L 1557.921875 933.339844 L 1557.921875 862.359375 "/>
</clipPath>
<linearGradient id="linear-pattern-3" gradientUnits="userSpaceOnUse" x1="-0.352243" y1="0" x2="1.097585" y2="0" gradientTransform="matrix(-314.977, 556.834, -556.834, -314.977, 1301.53, 613.73)">
<stop offset="0" stop-color="rgb(30.821228%, 68.772888%, 89.56604%)" stop-opacity="1"/>
<stop offset="0.125" stop-color="rgb(30.821228%, 68.772888%, 89.56604%)" stop-opacity="1"/>
<stop offset="0.1875" stop-color="rgb(30.821228%, 68.772888%, 89.56604%)" stop-opacity="1"/>
<stop offset="0.21875" stop-color="rgb(30.821228%, 68.772888%, 89.56604%)" stop-opacity="1"/>
<stop offset="0.234375" stop-color="rgb(30.821228%, 68.772888%, 89.56604%)" stop-opacity="1"/>
<stop offset="0.242187" stop-color="rgb(30.821228%, 68.772888%, 89.56604%)" stop-opacity="1"/>
<stop offset="0.246094" stop-color="rgb(30.738831%, 68.49823%, 89.328003%)" stop-opacity="1"/>
<stop offset="0.25" stop-color="rgb(30.657959%, 68.222046%, 89.089966%)" stop-opacity="1"/>
<stop offset="0.253906" stop-color="rgb(30.561829%, 67.964172%, 88.900757%)" stop-opacity="1"/>
<stop offset="0.257812" stop-color="rgb(30.464172%, 67.707825%, 88.713074%)" stop-opacity="1"/>
<stop offset="0.261719" stop-color="rgb(30.360413%, 67.495728%, 88.591003%)" stop-opacity="1"/>
<stop offset="0.265625" stop-color="rgb(30.256653%, 67.28363%, 88.467407%)" stop-opacity="1"/>
<stop offset="0.269531" stop-color="rgb(30.151367%, 67.071533%, 88.259888%)" stop-opacity="1"/>
<stop offset="0.273438" stop-color="rgb(30.047607%, 66.856384%, 88.052368%)" stop-opacity="1"/>
<stop offset="0.277344" stop-color="rgb(29.945374%, 66.647339%, 87.910461%)" stop-opacity="1"/>
<stop offset="0.28125" stop-color="rgb(29.841614%, 66.436768%, 87.768555%)" stop-opacity="1"/>
<stop offset="0.285156" stop-color="rgb(29.742432%, 66.200256%, 87.612915%)" stop-opacity="1"/>
<stop offset="0.289062" stop-color="rgb(29.64325%, 65.965271%, 87.457275%)" stop-opacity="1"/>
<stop offset="0.292969" stop-color="rgb(29.5578%, 65.666199%, 87.199402%)" stop-opacity="1"/>
<stop offset="0.296875" stop-color="rgb(29.470825%, 65.368652%, 86.941528%)" stop-opacity="1"/>
<stop offset="0.300781" stop-color="rgb(29.371643%, 65.153503%, 86.813354%)" stop-opacity="1"/>
<stop offset="0.304688" stop-color="rgb(29.270935%, 64.936829%, 86.686707%)" stop-opacity="1"/>
<stop offset="0.308594" stop-color="rgb(29.176331%, 64.686584%, 86.503601%)" stop-opacity="1"/>
<stop offset="0.3125" stop-color="rgb(29.081726%, 64.43634%, 86.320496%)" stop-opacity="1"/>
<stop offset="0.316406" stop-color="rgb(28.997803%, 64.141846%, 86.065674%)" stop-opacity="1"/>
<stop offset="0.320312" stop-color="rgb(28.912354%, 63.847351%, 85.809326%)" stop-opacity="1"/>
<stop offset="0.324219" stop-color="rgb(28.82843%, 63.554382%, 85.554504%)" stop-opacity="1"/>
<stop offset="0.328125" stop-color="rgb(28.742981%, 63.261414%, 85.299683%)" stop-opacity="1"/>
<stop offset="0.332031" stop-color="rgb(28.649902%, 63.02948%, 85.084534%)" stop-opacity="1"/>
<stop offset="0.335938" stop-color="rgb(28.555298%, 62.797546%, 84.867859%)" stop-opacity="1"/>
<stop offset="0.339844" stop-color="rgb(28.456116%, 62.594604%, 84.693909%)" stop-opacity="1"/>
<stop offset="0.34375" stop-color="rgb(28.356934%, 62.390137%, 84.519958%)" stop-opacity="1"/>
<stop offset="0.347656" stop-color="rgb(28.256226%, 62.188721%, 84.410095%)" stop-opacity="1"/>
<stop offset="0.351562" stop-color="rgb(28.157043%, 61.987305%, 84.300232%)" stop-opacity="1"/>
<stop offset="0.355469" stop-color="rgb(28.07312%, 61.709595%, 84.066772%)" stop-opacity="1"/>
<stop offset="0.359375" stop-color="rgb(27.989197%, 61.431885%, 83.833313%)" stop-opacity="1"/>
<stop offset="0.363281" stop-color="rgb(27.836609%, 61.172485%, 83.605957%)" stop-opacity="1"/>
<stop offset="0.367188" stop-color="rgb(27.682495%, 60.913086%, 83.380127%)" stop-opacity="1"/>
<stop offset="0.371094" stop-color="rgb(27.46582%, 60.688782%, 83.181763%)" stop-opacity="1"/>
<stop offset="0.375" stop-color="rgb(27.249146%, 60.462952%, 82.980347%)" stop-opacity="1"/>
<stop offset="0.378906" stop-color="rgb(27.153015%, 60.264587%, 82.785034%)" stop-opacity="1"/>
<stop offset="0.382812" stop-color="rgb(27.056885%, 60.066223%, 82.589722%)" stop-opacity="1"/>
<stop offset="0.386719" stop-color="rgb(26.971436%, 59.809875%, 82.36084%)" stop-opacity="1"/>
<stop offset="0.390625" stop-color="rgb(26.887512%, 59.553528%, 82.131958%)" stop-opacity="1"/>
<stop offset="0.394531" stop-color="rgb(26.803589%, 59.29718%, 81.90155%)" stop-opacity="1"/>
<stop offset="0.398438" stop-color="rgb(26.721191%, 59.039307%, 81.672668%)" stop-opacity="1"/>
<stop offset="0.402344" stop-color="rgb(26.626587%, 58.843994%, 81.480408%)" stop-opacity="1"/>
<stop offset="0.40625" stop-color="rgb(26.530457%, 58.647156%, 81.286621%)" stop-opacity="1"/>
<stop offset="0.410156" stop-color="rgb(26.322937%, 58.430481%, 81.09436%)" stop-opacity="1"/>
<stop offset="0.414062" stop-color="rgb(26.113892%, 58.213806%, 80.899048%)" stop-opacity="1"/>
<stop offset="0.417969" stop-color="rgb(25.952148%, 58.006287%, 80.667114%)" stop-opacity="1"/>
<stop offset="0.421875" stop-color="rgb(25.790405%, 57.798767%, 80.433655%)" stop-opacity="1"/>
<stop offset="0.425781" stop-color="rgb(25.698853%, 57.598877%, 80.162048%)" stop-opacity="1"/>
<stop offset="0.429688" stop-color="rgb(25.6073%, 57.397461%, 79.891968%)" stop-opacity="1"/>
<stop offset="0.433594" stop-color="rgb(25.534058%, 57.122803%, 79.653931%)" stop-opacity="1"/>
<stop offset="0.4375" stop-color="rgb(25.457764%, 56.848145%, 79.415894%)" stop-opacity="1"/>
<stop offset="0.441406" stop-color="rgb(25.372314%, 56.63147%, 79.211426%)" stop-opacity="1"/>
<stop offset="0.445312" stop-color="rgb(25.285339%, 56.414795%, 79.008484%)" stop-opacity="1"/>
<stop offset="0.449219" stop-color="rgb(25.198364%, 56.202698%, 78.831482%)" stop-opacity="1"/>
<stop offset="0.453125" stop-color="rgb(25.109863%, 55.990601%, 78.65448%)" stop-opacity="1"/>
<stop offset="0.457031" stop-color="rgb(25.036621%, 55.72052%, 78.503418%)" stop-opacity="1"/>
<stop offset="0.460938" stop-color="rgb(24.961853%, 55.451965%, 78.35083%)" stop-opacity="1"/>
<stop offset="0.464844" stop-color="rgb(24.873352%, 55.253601%, 78.170776%)" stop-opacity="1"/>
<stop offset="0.46875" stop-color="rgb(24.783325%, 55.055237%, 77.989197%)" stop-opacity="1"/>
<stop offset="0.472656" stop-color="rgb(24.703979%, 54.830933%, 77.74353%)" stop-opacity="1"/>
<stop offset="0.476563" stop-color="rgb(24.621582%, 54.605103%, 77.497864%)" stop-opacity="1"/>
<stop offset="0.480469" stop-color="rgb(24.552917%, 54.336548%, 77.189636%)" stop-opacity="1"/>
<stop offset="0.484375" stop-color="rgb(24.481201%, 54.067993%, 76.881409%)" stop-opacity="1"/>
<stop offset="0.488281" stop-color="rgb(24.411011%, 53.80249%, 76.652527%)" stop-opacity="1"/>
<stop offset="0.492188" stop-color="rgb(24.339294%, 53.536987%, 76.422119%)" stop-opacity="1"/>
<stop offset="0.496094" stop-color="rgb(24.171448%, 53.312683%, 76.223755%)" stop-opacity="1"/>
<stop offset="0.5" stop-color="rgb(24.005127%, 53.089905%, 76.025391%)" stop-opacity="1"/>
<stop offset="0.503906" stop-color="rgb(23.828125%, 52.871704%, 75.83313%)" stop-opacity="1"/>
<stop offset="0.507812" stop-color="rgb(23.652649%, 52.655029%, 75.639343%)" stop-opacity="1"/>
<stop offset="0.511719" stop-color="rgb(23.583984%, 52.392578%, 75.413513%)" stop-opacity="1"/>
<stop offset="0.515625" stop-color="rgb(23.51532%, 52.131653%, 75.186157%)" stop-opacity="1"/>
<stop offset="0.519531" stop-color="rgb(23.448181%, 51.872253%, 74.960327%)" stop-opacity="1"/>
<stop offset="0.523438" stop-color="rgb(23.381042%, 51.612854%, 74.734497%)" stop-opacity="1"/>
<stop offset="0.527344" stop-color="rgb(23.304749%, 51.391602%, 74.531555%)" stop-opacity="1"/>
<stop offset="0.53125" stop-color="rgb(23.228455%, 51.168823%, 74.328613%)" stop-opacity="1"/>
<stop offset="0.535156" stop-color="rgb(23.144531%, 50.987244%, 74.151611%)" stop-opacity="1"/>
<stop offset="0.539062" stop-color="rgb(23.059082%, 50.804138%, 73.971558%)" stop-opacity="1"/>
<stop offset="0.542969" stop-color="rgb(22.993469%, 50.547791%, 73.748779%)" stop-opacity="1"/>
<stop offset="0.546875" stop-color="rgb(22.926331%, 50.291443%, 73.526001%)" stop-opacity="1"/>
<stop offset="0.550781" stop-color="rgb(22.77832%, 50.02594%, 73.304749%)" stop-opacity="1"/>
<stop offset="0.554688" stop-color="rgb(22.63031%, 49.760437%, 73.08197%)" stop-opacity="1"/>
<stop offset="0.558594" stop-color="rgb(22.468567%, 49.516296%, 72.874451%)" stop-opacity="1"/>
<stop offset="0.5625" stop-color="rgb(22.30835%, 49.272156%, 72.665405%)" stop-opacity="1"/>
<stop offset="0.566406" stop-color="rgb(22.224426%, 49.099731%, 72.494507%)" stop-opacity="1"/>
<stop offset="0.570312" stop-color="rgb(22.140503%, 48.925781%, 72.322083%)" stop-opacity="1"/>
<stop offset="0.574219" stop-color="rgb(22.052002%, 48.634338%, 72.033691%)" stop-opacity="1"/>
<stop offset="0.578125" stop-color="rgb(21.961975%, 48.34137%, 71.743774%)" stop-opacity="1"/>
<stop offset="0.582031" stop-color="rgb(21.875%, 48.094177%, 71.499634%)" stop-opacity="1"/>
<stop offset="0.585938" stop-color="rgb(21.788025%, 47.848511%, 71.253967%)" stop-opacity="1"/>
<stop offset="0.589844" stop-color="rgb(21.70105%, 47.673035%, 71.083069%)" stop-opacity="1"/>
<stop offset="0.59375" stop-color="rgb(21.612549%, 47.497559%, 70.91217%)" stop-opacity="1"/>
<stop offset="0.597656" stop-color="rgb(21.429443%, 47.238159%, 70.697021%)" stop-opacity="1"/>
<stop offset="0.601562" stop-color="rgb(21.246338%, 46.980286%, 70.483398%)" stop-opacity="1"/>
<stop offset="0.605469" stop-color="rgb(21.144104%, 46.731567%, 70.269775%)" stop-opacity="1"/>
<stop offset="0.609375" stop-color="rgb(21.040344%, 46.482849%, 70.056152%)" stop-opacity="1"/>
<stop offset="0.613281" stop-color="rgb(20.970154%, 46.244812%, 69.833374%)" stop-opacity="1"/>
<stop offset="0.617188" stop-color="rgb(20.899963%, 46.006775%, 69.610596%)" stop-opacity="1"/>
<stop offset="0.621094" stop-color="rgb(20.793152%, 45.782471%, 69.3573%)" stop-opacity="1"/>
<stop offset="0.625" stop-color="rgb(20.68634%, 45.559692%, 69.104004%)" stop-opacity="1"/>
<stop offset="0.628906" stop-color="rgb(20.605469%, 45.387268%, 68.927002%)" stop-opacity="1"/>
<stop offset="0.632812" stop-color="rgb(20.523071%, 45.214844%, 68.75%)" stop-opacity="1"/>
<stop offset="0.636719" stop-color="rgb(20.454407%, 45.018005%, 68.565369%)" stop-opacity="1"/>
<stop offset="0.640625" stop-color="rgb(20.385742%, 44.821167%, 68.380737%)" stop-opacity="1"/>
<stop offset="0.644531" stop-color="rgb(20.329285%, 44.58313%, 68.173218%)" stop-opacity="1"/>
<stop offset="0.648438" stop-color="rgb(20.271301%, 44.346619%, 67.964172%)" stop-opacity="1"/>
<stop offset="0.652344" stop-color="rgb(20.21637%, 44.110107%, 67.756653%)" stop-opacity="1"/>
<stop offset="0.65625" stop-color="rgb(20.161438%, 43.873596%, 67.549133%)" stop-opacity="1"/>
<stop offset="0.660156" stop-color="rgb(19.996643%, 43.64624%, 67.318726%)" stop-opacity="1"/>
<stop offset="0.664062" stop-color="rgb(19.831848%, 43.417358%, 67.086792%)" stop-opacity="1"/>
<stop offset="0.667969" stop-color="rgb(19.65332%, 43.191528%, 66.835022%)" stop-opacity="1"/>
<stop offset="0.671875" stop-color="rgb(19.474792%, 42.965698%, 66.583252%)" stop-opacity="1"/>
<stop offset="0.675781" stop-color="rgb(19.422913%, 42.733765%, 66.31012%)" stop-opacity="1"/>
<stop offset="0.679688" stop-color="rgb(19.372559%, 42.504883%, 66.035461%)" stop-opacity="1"/>
<stop offset="0.683594" stop-color="rgb(19.277954%, 42.29126%, 65.849304%)" stop-opacity="1"/>
<stop offset="0.6875" stop-color="rgb(19.18335%, 42.076111%, 65.660095%)" stop-opacity="1"/>
<stop offset="0.691406" stop-color="rgb(19.052124%, 41.854858%, 65.47699%)" stop-opacity="1"/>
<stop offset="0.695313" stop-color="rgb(18.919373%, 41.635132%, 65.292358%)" stop-opacity="1"/>
<stop offset="0.699219" stop-color="rgb(18.754578%, 41.401672%, 65.093994%)" stop-opacity="1"/>
<stop offset="0.703125" stop-color="rgb(18.589783%, 41.169739%, 64.89563%)" stop-opacity="1"/>
<stop offset="0.707031" stop-color="rgb(18.540955%, 40.943909%, 64.69574%)" stop-opacity="1"/>
<stop offset="0.710938" stop-color="rgb(18.490601%, 40.719604%, 64.49585%)" stop-opacity="1"/>
<stop offset="0.714844" stop-color="rgb(18.411255%, 40.509033%, 64.273071%)" stop-opacity="1"/>
<stop offset="0.71875" stop-color="rgb(18.331909%, 40.298462%, 64.048767%)" stop-opacity="1"/>
<stop offset="0.722656" stop-color="rgb(18.24646%, 40.090942%, 63.822937%)" stop-opacity="1"/>
<stop offset="0.726562" stop-color="rgb(18.162537%, 39.883423%, 63.595581%)" stop-opacity="1"/>
<stop offset="0.730469" stop-color="rgb(18.115234%, 39.66217%, 63.398743%)" stop-opacity="1"/>
<stop offset="0.734375" stop-color="rgb(18.066406%, 39.442444%, 63.20343%)" stop-opacity="1"/>
<stop offset="0.738281" stop-color="rgb(17.980957%, 39.239502%, 62.974548%)" stop-opacity="1"/>
<stop offset="0.742188" stop-color="rgb(17.893982%, 39.038086%, 62.747192%)" stop-opacity="1"/>
<stop offset="0.746094" stop-color="rgb(17.810059%, 38.809204%, 62.496948%)" stop-opacity="1"/>
<stop offset="0.75" stop-color="rgb(17.726135%, 38.580322%, 62.245178%)" stop-opacity="1"/>
<stop offset="0.753906" stop-color="rgb(17.652893%, 38.314819%, 61.973572%)" stop-opacity="1"/>
<stop offset="0.757812" stop-color="rgb(17.581177%, 38.049316%, 61.700439%)" stop-opacity="1"/>
<stop offset="0.761719" stop-color="rgb(17.419434%, 37.831116%, 61.512756%)" stop-opacity="1"/>
<stop offset="0.765625" stop-color="rgb(17.259216%, 37.614441%, 61.323547%)" stop-opacity="1"/>
<stop offset="0.769531" stop-color="rgb(17.23175%, 37.371826%, 61.080933%)" stop-opacity="1"/>
<stop offset="0.773438" stop-color="rgb(17.202759%, 37.127686%, 60.838318%)" stop-opacity="1"/>
<stop offset="0.777344" stop-color="rgb(17.190552%, 36.885071%, 60.577393%)" stop-opacity="1"/>
<stop offset="0.78125" stop-color="rgb(17.179871%, 36.64093%, 60.314941%)" stop-opacity="1"/>
<stop offset="0.785156" stop-color="rgb(16.976929%, 36.451721%, 60.093689%)" stop-opacity="1"/>
<stop offset="0.789062" stop-color="rgb(16.772461%, 36.260986%, 59.870911%)" stop-opacity="1"/>
<stop offset="0.792969" stop-color="rgb(16.685486%, 36.01532%, 59.611511%)" stop-opacity="1"/>
<stop offset="0.796875" stop-color="rgb(16.596985%, 35.771179%, 59.352112%)" stop-opacity="1"/>
<stop offset="0.800781" stop-color="rgb(16.474915%, 35.546875%, 59.106445%)" stop-opacity="1"/>
<stop offset="0.804687" stop-color="rgb(16.351318%, 35.321045%, 58.860779%)" stop-opacity="1"/>
<stop offset="0.808594" stop-color="rgb(16.157532%, 35.136414%, 58.642578%)" stop-opacity="1"/>
<stop offset="0.8125" stop-color="rgb(15.962219%, 34.950256%, 58.422852%)" stop-opacity="1"/>
<stop offset="0.816406" stop-color="rgb(15.901184%, 34.701538%, 58.1604%)" stop-opacity="1"/>
<stop offset="0.820312" stop-color="rgb(15.838623%, 34.45282%, 57.897949%)" stop-opacity="1"/>
<stop offset="0.824219" stop-color="rgb(15.776062%, 34.205627%, 57.63855%)" stop-opacity="1"/>
<stop offset="0.828125" stop-color="rgb(15.715027%, 33.958435%, 57.377625%)" stop-opacity="1"/>
<stop offset="0.832031" stop-color="rgb(15.625%, 33.729553%, 57.130432%)" stop-opacity="1"/>
<stop offset="0.835937" stop-color="rgb(15.533447%, 33.499146%, 56.881714%)" stop-opacity="1"/>
<stop offset="0.839844" stop-color="rgb(15.341187%, 33.325195%, 56.668091%)" stop-opacity="1"/>
<stop offset="0.84375" stop-color="rgb(15.1474%, 33.149719%, 56.455994%)" stop-opacity="1"/>
<stop offset="0.847656" stop-color="rgb(15.066528%, 32.920837%, 56.208801%)" stop-opacity="1"/>
<stop offset="0.851563" stop-color="rgb(14.984131%, 32.693481%, 55.960083%)" stop-opacity="1"/>
<stop offset="0.855469" stop-color="rgb(14.918518%, 32.48291%, 55.722046%)" stop-opacity="1"/>
<stop offset="0.859375" stop-color="rgb(14.849854%, 32.272339%, 55.485535%)" stop-opacity="1"/>
<stop offset="0.863281" stop-color="rgb(14.770508%, 32.099915%, 55.271912%)" stop-opacity="1"/>
<stop offset="0.867188" stop-color="rgb(14.689636%, 31.92749%, 55.058289%)" stop-opacity="1"/>
<stop offset="0.871094" stop-color="rgb(14.637756%, 31.692505%, 54.748535%)" stop-opacity="1"/>
<stop offset="0.875" stop-color="rgb(14.584351%, 31.460571%, 54.440308%)" stop-opacity="1"/>
<stop offset="0.878906" stop-color="rgb(14.51416%, 31.268311%, 54.194641%)" stop-opacity="1"/>
<stop offset="0.882812" stop-color="rgb(14.445496%, 31.07605%, 53.947449%)" stop-opacity="1"/>
<stop offset="0.886719" stop-color="rgb(14.343262%, 30.911255%, 53.741455%)" stop-opacity="1"/>
<stop offset="0.890625" stop-color="rgb(14.242554%, 30.744934%, 53.535461%)" stop-opacity="1"/>
<stop offset="0.894531" stop-color="rgb(14.057922%, 30.584717%, 53.33252%)" stop-opacity="1"/>
<stop offset="0.898438" stop-color="rgb(13.876343%, 30.422974%, 53.129578%)" stop-opacity="1"/>
<stop offset="0.902344" stop-color="rgb(13.800049%, 30.209351%, 52.893066%)" stop-opacity="1"/>
<stop offset="0.90625" stop-color="rgb(13.723755%, 29.995728%, 52.655029%)" stop-opacity="1"/>
<stop offset="0.910156" stop-color="rgb(13.653564%, 29.777527%, 52.397156%)" stop-opacity="1"/>
<stop offset="0.914062" stop-color="rgb(13.583374%, 29.562378%, 52.139282%)" stop-opacity="1"/>
<stop offset="0.917969" stop-color="rgb(13.487244%, 29.360962%, 51.861572%)" stop-opacity="1"/>
<stop offset="0.921875" stop-color="rgb(13.392639%, 29.159546%, 51.585388%)" stop-opacity="1"/>
<stop offset="0.925781" stop-color="rgb(13.322449%, 29.00238%, 51.330566%)" stop-opacity="1"/>
<stop offset="0.929688" stop-color="rgb(13.250732%, 28.845215%, 51.074219%)" stop-opacity="1"/>
<stop offset="0.9375" stop-color="rgb(13.224792%, 28.785706%, 50.978088%)" stop-opacity="1"/>
<stop offset="1" stop-color="rgb(13.197327%, 28.72467%, 50.878906%)" stop-opacity="1"/>
</linearGradient>
<clipPath id="clip-10">
<path clip-rule="nonzero" d="M 1566.839844 871.75 L 1618.640625 871.75 L 1618.640625 923.539062 L 1566.839844 923.539062 Z M 1566.839844 871.75 "/>
</clipPath>
<linearGradient id="linear-pattern-4" gradientUnits="userSpaceOnUse" x1="0.106997" y1="0" x2="0.217325" y2="0" gradientTransform="matrix(-314.977, 556.834, -556.834, -314.977, 1643.82, 807.35)">
<stop offset="0" stop-color="rgb(28.988647%, 64.11438%, 86.04126%)" stop-opacity="1"/>
<stop offset="0.03125" stop-color="rgb(28.964233%, 64.025879%, 85.96344%)" stop-opacity="1"/>
<stop offset="0.0625" stop-color="rgb(28.912354%, 63.847351%, 85.8078%)" stop-opacity="1"/>
<stop offset="0.09375" stop-color="rgb(28.860474%, 63.668823%, 85.653687%)" stop-opacity="1"/>
<stop offset="0.125" stop-color="rgb(28.81012%, 63.490295%, 85.499573%)" stop-opacity="1"/>
<stop offset="0.15625" stop-color="rgb(28.75824%, 63.311768%, 85.343933%)" stop-opacity="1"/>
<stop offset="0.1875" stop-color="rgb(28.70636%, 63.139343%, 85.192871%)" stop-opacity="1"/>
<stop offset="0.25" stop-color="rgb(28.619385%, 62.930298%, 84.996033%)" stop-opacity="1"/>
<stop offset="0.3125" stop-color="rgb(28.49884%, 62.68158%, 84.753418%)" stop-opacity="1"/>
<stop offset="0.375" stop-color="rgb(28.37677%, 62.434387%, 84.555054%)" stop-opacity="1"/>
<stop offset="0.4375" stop-color="rgb(28.256226%, 62.188721%, 84.410095%)" stop-opacity="1"/>
<stop offset="0.46875" stop-color="rgb(28.166199%, 62.005615%, 84.310913%)" stop-opacity="1"/>
<stop offset="0.5" stop-color="rgb(28.109741%, 61.856079%, 84.202576%)" stop-opacity="1"/>
<stop offset="0.53125" stop-color="rgb(28.059387%, 61.680603%, 84.048462%)" stop-opacity="1"/>
<stop offset="0.5625" stop-color="rgb(28.010559%, 61.505127%, 83.895874%)" stop-opacity="1"/>
<stop offset="0.59375" stop-color="rgb(27.961731%, 61.329651%, 83.744812%)" stop-opacity="1"/>
<stop offset="0.625" stop-color="rgb(27.893066%, 61.16333%, 83.598328%)" stop-opacity="1"/>
<stop offset="0.6875" stop-color="rgb(27.713013%, 60.942078%, 83.406067%)" stop-opacity="1"/>
<stop offset="0.75" stop-color="rgb(27.433777%, 60.665894%, 83.161926%)" stop-opacity="1"/>
<stop offset="0.8125" stop-color="rgb(27.227783%, 60.404968%, 82.920837%)" stop-opacity="1"/>
<stop offset="0.875" stop-color="rgb(27.101135%, 60.159302%, 82.6828%)" stop-opacity="1"/>
<stop offset="0.90625" stop-color="rgb(27.015686%, 59.97467%, 82.502747%)" stop-opacity="1"/>
<stop offset="0.9375" stop-color="rgb(26.96228%, 59.823608%, 82.365417%)" stop-opacity="1"/>
<stop offset="0.96875" stop-color="rgb(26.914978%, 59.651184%, 82.217407%)" stop-opacity="1"/>
<stop offset="1" stop-color="rgb(26.86615%, 59.47876%, 82.066345%)" stop-opacity="1"/>
</linearGradient>
</defs>
<g clip-path="url(#clip-0)">
<path fill-rule="nonzero" fill="url(#linear-pattern-0)" d="M 1628.847656 765.359375 L 1550.160156 720.851562 L 1505.652344 799.539062 L 1584.339844 844.050781 Z M 1628.847656 765.359375 "/>
</g>
<g clip-path="url(#clip-1)">
<path fill-rule="nonzero" fill="rgb(30.821228%, 68.772888%, 89.56604%)" fill-opacity="1" d="M 1740.582031 695.402344 L 1642.453125 639.898438 L 1586.945312 738.027344 L 1685.074219 793.53125 Z M 1740.582031 695.402344 "/>
</g>
<g clip-path="url(#clip-2)">
<path fill-rule="nonzero" fill="url(#linear-pattern-1)" d="M 1779.699219 836.164062 L 1683.433594 781.710938 L 1628.980469 877.976562 L 1725.246094 932.429688 Z M 1779.699219 836.164062 "/>
</g>
<g clip-path="url(#clip-3)">
<path fill-rule="nonzero" fill="url(#linear-pattern-2)" d="M 1905.507812 893.535156 L 1807.625 838.167969 L 1752.253906 936.054688 L 1850.136719 991.421875 Z M 1905.507812 893.535156 "/>
</g>
<g clip-path="url(#clip-4)">
<path fill-rule="nonzero" fill="rgb(30.821228%, 68.772888%, 89.56604%)" fill-opacity="1" d="M 1871.375 723.738281 L 1753.757812 657.207031 L 1687.226562 774.824219 L 1804.84375 841.355469 Z M 1871.375 723.738281 "/>
</g>
<g clip-path="url(#clip-5)">
<path fill-rule="nonzero" fill="rgb(30.821228%, 68.772888%, 89.56604%)" fill-opacity="1" d="M 1936.828125 608.585938 L 1829.003906 547.597656 L 1768.011719 655.421875 L 1875.835938 716.414062 Z M 1936.828125 608.585938 "/>
</g>
<g clip-path="url(#clip-6)">
<path fill-rule="nonzero" fill="rgb(30.821228%, 68.772888%, 89.56604%)" fill-opacity="1" d="M 1777.132812 573.25 L 1685.148438 521.21875 L 1633.117188 613.203125 L 1725.101562 665.234375 Z M 1777.132812 573.25 "/>
</g>
<g clip-path="url(#clip-7)">
<g clip-path="url(#clip-8)">
<g clip-path="url(#clip-9)">
<path fill-rule="nonzero" fill="url(#linear-pattern-3)" d="M 1867.261719 674.839844 L 1001.496094 185.117188 L 544.835938 992.429688 L 1410.601562 1482.15625 Z M 1867.261719 674.839844 "/>
</g>
</g>
</g>
<g clip-path="url(#clip-10)">
<path fill-rule="nonzero" fill="url(#linear-pattern-4)" d="M 1640.835938 884.304688 L 1579.398438 849.550781 L 1544.644531 910.984375 L 1606.082031 945.738281 Z M 1640.835938 884.304688 "/>
</g>
<path fill-rule="nonzero" fill="rgb(47.846985%, 48.347473%, 48.753357%)" fill-opacity="1" d="M 781.023438 1474.589844 C 768.117188 1474.589844 759.234375 1465.539062 759.234375 1453.28125 L 759.234375 1453.160156 C 759.234375 1441.378906 768.414062 1431.730469 780.964844 1431.730469 C 788.421875 1431.730469 792.921875 1433.738281 797.242188 1437.410156 L 791.5 1444.339844 C 788.304688 1441.679688 785.460938 1440.140625 780.667969 1440.140625 C 774.035156 1440.140625 768.769531 1446 768.769531 1453.039062 L 768.769531 1453.160156 C 768.769531 1460.738281 773.976562 1466.300781 781.316406 1466.300781 C 784.632812 1466.300781 787.59375 1465.480469 789.902344 1463.820312 L 789.902344 1457.898438 L 780.726562 1457.898438 L 780.726562 1450.019531 L 798.722656 1450.019531 L 798.722656 1468.019531 C 794.460938 1471.628906 788.601562 1474.589844 781.023438 1474.589844 "/>
<path fill-rule="nonzero" fill="rgb(47.846985%, 48.347473%, 48.753357%)" fill-opacity="1" d="M 857.917969 1453.160156 C 857.917969 1446.058594 852.710938 1440.140625 845.367188 1440.140625 C 838.027344 1440.140625 832.9375 1445.941406 832.9375 1453.039062 L 832.9375 1453.160156 C 832.9375 1460.269531 838.144531 1466.191406 845.484375 1466.191406 C 852.828125 1466.191406 857.917969 1460.378906 857.917969 1453.28125 Z M 845.367188 1474.589844 C 832.582031 1474.589844 823.402344 1465.058594 823.402344 1453.28125 L 823.402344 1453.160156 C 823.402344 1441.378906 832.699219 1431.730469 845.484375 1431.730469 C 858.273438 1431.730469 867.449219 1441.261719 867.449219 1453.039062 L 867.449219 1453.160156 C 867.449219 1464.941406 858.15625 1474.589844 845.367188 1474.589844 "/>
<path fill-rule="nonzero" fill="rgb(47.846985%, 48.347473%, 48.753357%)" fill-opacity="1" d="M 925.992188 1453.160156 C 925.992188 1446.058594 920.78125 1440.140625 913.441406 1440.140625 C 906.101562 1440.140625 901.011719 1445.941406 901.011719 1453.039062 L 901.011719 1453.160156 C 901.011719 1460.269531 906.21875 1466.191406 913.5625 1466.191406 C 920.902344 1466.191406 925.992188 1460.378906 925.992188 1453.28125 Z M 913.441406 1474.589844 C 900.65625 1474.589844 891.480469 1465.058594 891.480469 1453.28125 L 891.480469 1453.160156 C 891.480469 1441.378906 900.773438 1431.730469 913.5625 1431.730469 C 926.347656 1431.730469 935.523438 1441.261719 935.523438 1453.039062 L 935.523438 1453.160156 C 935.523438 1464.941406 926.230469 1474.589844 913.441406 1474.589844 "/>
<path fill-rule="nonzero" fill="rgb(47.846985%, 48.347473%, 48.753357%)" fill-opacity="1" d="M 990.042969 1453.160156 C 990.042969 1445.820312 985.007812 1440.671875 977.550781 1440.671875 L 970.503906 1440.671875 L 970.503906 1465.648438 L 977.550781 1465.648438 C 985.007812 1465.648438 990.042969 1460.621094 990.042969 1453.28125 Z M 977.550781 1473.878906 L 961.390625 1473.878906 L 961.390625 1432.441406 L 977.550781 1432.441406 C 990.574219 1432.441406 999.574219 1441.378906 999.574219 1453.039062 L 999.574219 1453.160156 C 999.574219 1464.820312 990.574219 1473.878906 977.550781 1473.878906 "/>
<path fill-rule="nonzero" fill="rgb(47.846985%, 48.347473%, 48.753357%)" fill-opacity="1" d="M 1061.371094 1473.878906 L 1061.371094 1432.441406 L 1070.488281 1432.441406 L 1070.488281 1473.878906 L 1061.371094 1473.878906 "/>
<path fill-rule="nonzero" fill="rgb(47.846985%, 48.347473%, 48.753357%)" fill-opacity="1" d="M 1127.261719 1453.160156 C 1127.261719 1445.820312 1122.21875 1440.671875 1114.761719 1440.671875 L 1107.71875 1440.671875 L 1107.71875 1465.648438 L 1114.761719 1465.648438 C 1122.21875 1465.648438 1127.261719 1460.621094 1127.261719 1453.28125 Z M 1114.761719 1473.878906 L 1098.601562 1473.878906 L 1098.601562 1432.441406 L 1114.761719 1432.441406 C 1127.789062 1432.441406 1136.789062 1441.378906 1136.789062 1453.039062 L 1136.789062 1453.160156 C 1136.789062 1464.820312 1127.789062 1473.878906 1114.761719 1473.878906 "/>
<path fill-rule="nonzero" fill="rgb(47.846985%, 48.347473%, 48.753357%)" fill-opacity="1" d="M 1162.648438 1473.878906 L 1162.648438 1432.441406 L 1193.910156 1432.441406 L 1193.910156 1440.550781 L 1171.710938 1440.550781 L 1171.710938 1448.960938 L 1191.25 1448.960938 L 1191.25 1457.070312 L 1171.710938 1457.070312 L 1171.710938 1465.769531 L 1194.210938 1465.769531 L 1194.210938 1473.878906 L 1162.648438 1473.878906 "/>
<path fill-rule="nonzero" fill="rgb(47.846985%, 48.347473%, 48.753357%)" fill-opacity="1" d="M 1238.371094 1443.101562 L 1232.859375 1456.539062 L 1243.871094 1456.539062 Z M 1250.921875 1473.878906 L 1247.128906 1464.589844 L 1229.601562 1464.589844 L 1225.808594 1473.878906 L 1216.519531 1473.878906 L 1234.28125 1432.148438 L 1242.691406 1432.148438 L 1260.449219 1473.878906 L 1250.921875 1473.878906 "/>
<path fill-rule="nonzero" fill="rgb(47.846985%, 48.347473%, 48.753357%)" fill-opacity="1" d="M 1339.53125 1474.589844 C 1327.328125 1474.589844 1318.28125 1465.179688 1318.28125 1453.28125 L 1318.28125 1453.160156 C 1318.28125 1441.378906 1327.160156 1431.730469 1339.878906 1431.730469 C 1347.699219 1431.730469 1352.378906 1434.339844 1356.21875 1438.128906 L 1350.421875 1444.808594 C 1347.230469 1441.910156 1343.96875 1440.140625 1339.828125 1440.140625 C 1332.839844 1440.140625 1327.808594 1445.941406 1327.808594 1453.039062 L 1327.808594 1453.160156 C 1327.808594 1460.269531 1332.71875 1466.191406 1339.828125 1466.191406 C 1344.558594 1466.191406 1347.460938 1464.289062 1350.71875 1461.328125 L 1356.519531 1467.191406 C 1352.261719 1471.75 1347.519531 1474.589844 1339.53125 1474.589844 "/>
<path fill-rule="nonzero" fill="rgb(47.846985%, 48.347473%, 48.753357%)" fill-opacity="1" d="M 1413.050781 1453.160156 C 1413.050781 1446.058594 1407.839844 1440.140625 1400.5 1440.140625 C 1393.160156 1440.140625 1388.070312 1445.941406 1388.070312 1453.039062 L 1388.070312 1453.160156 C 1388.070312 1460.269531 1393.28125 1466.191406 1400.621094 1466.191406 C 1407.960938 1466.191406 1413.050781 1460.378906 1413.050781 1453.28125 Z M 1400.5 1474.589844 C 1387.710938 1474.589844 1378.539062 1465.058594 1378.539062 1453.28125 L 1378.539062 1453.160156 C 1378.539062 1441.378906 1387.828125 1431.730469 1400.621094 1431.730469 C 1413.410156 1431.730469 1422.578125 1441.261719 1422.578125 1453.039062 L 1422.578125 1453.160156 C 1422.578125 1464.941406 1413.289062 1474.589844 1400.5 1474.589844 "/>
<path fill-rule="nonzero" fill="rgb(47.846985%, 48.347473%, 48.753357%)" fill-opacity="1" d="M 1477.511719 1473.878906 L 1457.449219 1447.539062 L 1457.449219 1473.878906 L 1448.449219 1473.878906 L 1448.449219 1432.441406 L 1456.851562 1432.441406 L 1476.269531 1457.960938 L 1476.269531 1432.441406 L 1485.269531 1432.441406 L 1485.269531 1473.878906 L 1477.511719 1473.878906 "/>
<path fill-rule="nonzero" fill="rgb(47.846985%, 48.347473%, 48.753357%)" fill-opacity="1" d="M 1532.390625 1474.589844 C 1520.191406 1474.589844 1511.128906 1465.179688 1511.128906 1453.28125 L 1511.128906 1453.160156 C 1511.128906 1441.378906 1520.011719 1431.730469 1532.738281 1431.730469 C 1540.558594 1431.730469 1545.230469 1434.339844 1549.078125 1438.128906 L 1543.28125 1444.808594 C 1540.078125 1441.910156 1536.828125 1440.140625 1532.679688 1440.140625 C 1525.699219 1440.140625 1520.671875 1445.941406 1520.671875 1453.039062 L 1520.671875 1453.160156 C 1520.671875 1460.269531 1525.578125 1466.191406 1532.679688 1466.191406 C 1537.421875 1466.191406 1540.320312 1464.289062 1543.578125 1461.328125 L 1549.378906 1467.191406 C 1545.121094 1471.75 1540.378906 1474.589844 1532.390625 1474.589844 "/>
<path fill-rule="nonzero" fill="rgb(47.846985%, 48.347473%, 48.753357%)" fill-opacity="1" d="M 1574.421875 1473.878906 L 1574.421875 1432.441406 L 1605.671875 1432.441406 L 1605.671875 1440.550781 L 1583.46875 1440.550781 L 1583.46875 1448.960938 L 1603.011719 1448.960938 L 1603.011719 1457.070312 L 1583.46875 1457.070312 L 1583.46875 1465.769531 L 1605.96875 1465.769531 L 1605.96875 1473.878906 L 1574.421875 1473.878906 "/>
<path fill-rule="nonzero" fill="rgb(47.846985%, 48.347473%, 48.753357%)" fill-opacity="1" d="M 1655.398438 1446.949219 C 1655.398438 1442.859375 1652.550781 1440.671875 1648 1440.671875 L 1640.949219 1440.671875 L 1640.949219 1453.339844 L 1648.171875 1453.339844 C 1652.730469 1453.339844 1655.398438 1450.621094 1655.398438 1447.058594 Z M 1647.878906 1461.449219 L 1640.949219 1461.449219 L 1640.949219 1473.878906 L 1631.828125 1473.878906 L 1631.828125 1432.441406 L 1648.769531 1432.441406 C 1658.648438 1432.441406 1664.628906 1438.300781 1664.628906 1446.769531 L 1664.628906 1446.890625 C 1664.628906 1456.480469 1657.171875 1461.449219 1647.878906 1461.449219 "/>
<path fill-rule="nonzero" fill="rgb(47.846985%, 48.347473%, 48.753357%)" fill-opacity="1" d="M 1707.898438 1440.851562 L 1707.898438 1473.878906 L 1698.789062 1473.878906 L 1698.789062 1440.851562 L 1686.171875 1440.851562 L 1686.171875 1432.441406 L 1720.511719 1432.441406 L 1720.511719 1440.851562 L 1707.898438 1440.851562 "/>
<path fill-rule="nonzero" fill="rgb(18.159485%, 17.56134%, 17.663574%)" fill-opacity="1" d="M 602.128906 1320.230469 C 602.128906 1287.609375 620.441406 1279.910156 651.21875 1279.910156 L 691.382812 1279.910156 C 740.015625 1279.910156 746.324219 1290.378906 746.015625 1321.921875 L 711.851562 1321.921875 L 711.851562 1318.851562 C 711.851562 1310.839844 706.003906 1308.539062 695.847656 1308.539062 L 658.605469 1308.539062 C 640.601562 1308.539062 637.214844 1317 637.214844 1330.851562 L 637.214844 1342.851562 C 637.214844 1359.011719 640.601562 1365.171875 656.757812 1365.171875 L 693.230469 1365.171875 C 708.617188 1365.171875 713.234375 1363.628906 713.234375 1349.78125 L 747.398438 1349.78125 L 747.398438 1360.238281 C 747.398438 1379.019531 740.628906 1393.789062 706.3125 1393.789062 L 651.21875 1393.789062 C 620.441406 1393.789062 602.128906 1386.101562 602.128906 1353.46875 L 602.128906 1320.230469 "/>
<path fill-rule="nonzero" fill="rgb(18.159485%, 17.56134%, 17.663574%)" fill-opacity="1" d="M 800.632812 1342.851562 C 800.632812 1359.011719 804.015625 1365.171875 820.175781 1365.171875 L 863.878906 1365.171875 C 880.039062 1365.171875 883.421875 1359.011719 883.421875 1342.851562 L 883.421875 1330.851562 C 883.421875 1317 880.039062 1308.539062 862.03125 1308.539062 L 822.023438 1308.539062 C 804.015625 1308.539062 800.632812 1317 800.632812 1330.851562 Z M 765.546875 1320.230469 C 765.546875 1287.609375 783.855469 1279.910156 814.636719 1279.910156 L 869.421875 1279.910156 C 900.195312 1279.910156 918.511719 1287.609375 918.511719 1320.230469 L 918.511719 1353.46875 C 918.511719 1386.101562 900.195312 1393.789062 869.421875 1393.789062 L 814.636719 1393.789062 C 783.855469 1393.789062 765.546875 1386.101562 765.546875 1353.46875 L 765.546875 1320.230469 "/>
<path fill-rule="nonzero" fill="rgb(18.159485%, 17.56134%, 17.663574%)" fill-opacity="1" d="M 939.117188 1281.140625 L 991.59375 1281.140625 L 1030.21875 1352.859375 L 1068.851562 1281.140625 L 1121.320312 1281.140625 L 1121.320312 1392.558594 L 1088.078125 1392.558594 L 1088.078125 1312.539062 L 1087.769531 1312.539062 L 1042.988281 1392.558594 L 1017.449219 1392.558594 L 972.664062 1312.539062 L 972.355469 1312.539062 L 972.355469 1392.558594 L 939.117188 1392.558594 L 939.117188 1281.140625 "/>
<path fill-rule="nonzero" fill="rgb(18.159485%, 17.56134%, 17.663574%)" fill-opacity="1" d="M 1178.550781 1336.851562 L 1231.640625 1336.851562 C 1239.648438 1336.851562 1242.71875 1331.621094 1242.71875 1325 L 1242.71875 1320.691406 C 1242.71875 1313.148438 1239.03125 1308.839844 1228.71875 1308.839844 L 1178.550781 1308.839844 Z M 1144.390625 1281.140625 L 1237.488281 1281.140625 C 1269.960938 1281.140625 1277.808594 1297.460938 1277.808594 1319.308594 L 1277.808594 1328.851562 C 1277.808594 1345.46875 1270.578125 1364.550781 1246.421875 1364.550781 L 1178.550781 1364.550781 L 1178.550781 1392.558594 L 1144.390625 1392.558594 L 1144.390625 1281.140625 "/>
<path fill-rule="nonzero" fill="rgb(18.159485%, 17.56134%, 17.663574%)" fill-opacity="1" d="M 1296.261719 1281.140625 L 1330.429688 1281.140625 L 1330.429688 1345.46875 C 1330.429688 1359.628906 1335.511719 1365.171875 1349.511719 1365.171875 L 1383.371094 1365.171875 C 1397.371094 1365.171875 1402.449219 1359.628906 1402.449219 1345.46875 L 1402.449219 1281.140625 L 1436.609375 1281.140625 L 1436.609375 1352.859375 C 1436.609375 1380.558594 1422.300781 1393.789062 1390.910156 1393.789062 L 1341.96875 1393.789062 C 1310.578125 1393.789062 1296.261719 1380.558594 1296.261719 1352.859375 L 1296.261719 1281.140625 "/>
<path fill-rule="nonzero" fill="rgb(18.159485%, 17.56134%, 17.663574%)" fill-opacity="1" d="M 1451.53125 1281.140625 L 1581.71875 1281.140625 L 1581.71875 1308.839844 L 1533.699219 1308.839844 L 1533.699219 1392.558594 L 1499.539062 1392.558594 L 1499.539062 1308.839844 L 1451.53125 1308.839844 L 1451.53125 1281.140625 "/>
<path fill-rule="nonzero" fill="rgb(18.159485%, 17.56134%, 17.663574%)" fill-opacity="1" d="M 1596.628906 1281.140625 L 1718.511719 1281.140625 L 1718.511719 1307 L 1630.789062 1307 L 1630.789062 1324.851562 L 1713.890625 1324.851562 L 1713.890625 1347.929688 L 1630.789062 1347.929688 L 1630.789062 1365.78125 L 1720.511719 1365.78125 L 1720.511719 1392.558594 L 1596.628906 1392.558594 L 1596.628906 1281.140625 "/>
<path fill-rule="nonzero" fill="rgb(18.159485%, 17.56134%, 17.663574%)" fill-opacity="1" d="M 1775.28125 1335.929688 L 1831.761719 1335.929688 C 1840.988281 1335.929688 1844.378906 1332.238281 1844.378906 1324.230469 L 1844.378906 1320.539062 C 1844.378906 1310.691406 1839.460938 1308.839844 1828.679688 1308.839844 L 1775.28125 1308.839844 Z M 1741.121094 1281.140625 L 1844.230469 1281.140625 C 1870.539062 1281.140625 1877.621094 1294.21875 1877.621094 1314.230469 L 1877.621094 1321.308594 C 1877.621094 1336.238281 1874.230469 1345.011719 1858.539062 1348.699219 L 1858.539062 1349.011719 C 1868.691406 1350.859375 1877.160156 1355.320312 1877.160156 1373.628906 L 1877.160156 1392.558594 L 1843 1392.558594 L 1843 1379.171875 C 1843 1367.480469 1839.609375 1363.628906 1828.988281 1363.628906 L 1775.28125 1363.628906 L 1775.28125 1392.558594 L 1741.121094 1392.558594 L 1741.121094 1281.140625 "/>
</svg>
